<svg xmlns="http://www.w3.org/2000/svg" width="68" height="56"><path fill="none" d="M0 0H68V56H0z"/><path d="M8.259 10.951L9.533 9.83c.255-.225.453-.65.499-1.017-.58.028-1.054.07-1.666.127l-.166.146c-.297.262-.53.8-.518 1.195l.014.428c.012.396.266.505.563.243zm2.82-.434c-.296-.262-.55-.152-.562.244l-.014.427c-.012.396.22.934.518 1.196l1.274 1.123c.297.262.55.152.563-.244l.013-.427c.013-.396-.22-.934-.517-1.196l-1.274-1.123zm-3.863 2.746l.013-.427c.013-.396-.22-.934-.517-1.196l-.487-.429-.208 1.735.636.56c.297.263.55.153.563-.243zm.013 34.66l-.013-.427c-.013-.396-.266-.506-.563-.244l-.636.56.208 1.736.487-.43c.297-.26.53-.799.517-1.195zm5.115-37.004c.303.254.551.139.552-.257v-.428c.001-.396-.247-.928-.55-1.183l-.34-.285c-.615.004-1.094.013-1.505.027.052.37.264.8.529 1.023l1.314 1.103zm-5.09-.257v-.428c0-.287-.131-.643-.319-.916-.36.237-.545.598-.621 1.16l-.013.105.4.336c.304.254.552.139.553-.257zM6.7 49.84l-.4.336.013.106c.076.56.26.921.622 1.159.187-.273.319-.63.318-.917v-.427c0-.396-.25-.512-.552-.257zm1.51-36.32l1.314-1.103c.303-.254.551-.787.55-1.183v-.427c0-.396-.25-.512-.552-.257l-1.314 1.102c-.303.255-.551.787-.55 1.183v.428c0 .396.25.511.553.257zm11.285 0l.728-.611-.204-1.699-.527.442c-.303.255-.55.787-.55 1.183v.428c0 .396.25.511.553.257zm-1.51-2.601c.303.254.552.139.552-.257v-.428c.001-.396-.247-.928-.55-1.183l-.147-.123c-.472-.085-1.025-.127-1.7-.147.05.373.263.81.531 1.035l1.314 1.103zm-4.132 2.6l1.313-1.102c.303-.254.551-.787.55-1.183v-.427c0-.396-.249-.512-.552-.257l-1.314 1.102c-.303.255-.55.787-.55 1.183v.428c0 .396.25.511.553.257zm5.748-2.529l.354-.312-.024-.2c-.07-.512-.29-.838-.624-1.064-.174.274-.292.624-.283.905l.014.428c.012.396.265.505.562.243zm-2.88-.473c-.297-.262-.55-.152-.563.244l-.013.427c-.013.396.22.934.517 1.196l1.274 1.123c.298.261.55.152.563-.244l.014-.427c.012-.396-.22-.934-.518-1.196l-1.274-1.123zm-2.821.434l1.274-1.122c.265-.234.469-.683.503-1.059a90.072 90.072 0 0 0-1.47-.008l-.366.323c-.297.261-.53.8-.517 1.195l.013.428c.013.395.266.505.563.243zm5.138 39.061l-.014.427c-.009.282.11.631.283.906.334-.226.554-.552.624-1.063l.024-.201-.354-.313c-.298-.261-.55-.152-.563.244zm-2.317.23l1.274-1.123c.297-.262.53-.8.518-1.196l-.014-.427c-.012-.396-.265-.506-.563-.244l-1.274 1.123c-.297.262-.53.8-.517 1.195l.013.428c.013.396.266.505.563.244zm10.233-23.106c.061-.12.027-.257.045-.392.055-.408 0-1.719 0-1.719s.055-1.31 0-1.718c-.018-.135.016-.272-.045-.392a.686.686 0 0 0-.51-.37 1.263 1.263 0 0 0-.327-.013.86.86 0 0 0-.265.069 7.026 7.026 0 0 0-3.75-5.91c-.1-.077-.2-.158-.303-.233.002.03.012.064.017.095a6.972 6.972 0 0 0-.457-.195v-.224a2.583 2.583 0 0 1-.445-.41c-.015-.018-.024-.039-.038-.058-.024.016-.045.02-.07.04l-.423.355a7 7 0 0 0-.659-.114l.88-.775a3.261 3.261 0 0 1-.218-.909l-.089-.739-.814.717c-.297.262-.53.8-.517 1.196l.013.427c0 .012.006.017.007.029-.05-.001-.098-.008-.148-.008h-.313c.003-.024.012-.04.012-.067v-.427c.002-.396-.246-.928-.55-1.183l-1.313-1.103c-.303-.254-.552-.139-.553.257v.428c0 .396.247.928.55 1.183l1.088.912h-.798l-.24-.211c-.287-.253-.529-.153-.556.211h-.463c-.036-.322-.26-.413-.538-.179l-.213.18h-.798l1.021-.901c.298-.262.53-.8.518-1.196l-.014-.427c-.012-.396-.265-.505-.563-.244l-1.274 1.123c-.297.262-.53.8-.517 1.196l.013.427c0 .009.004.013.005.021h-.46c.003-.024.013-.04.013-.067v-.427c.001-.396-.247-.928-.55-1.183l-1.313-1.103c-.304-.254-.552-.139-.553.257v.428c0 .396.247.928.55 1.183l1.088.912h-.798l-.24-.211c-.287-.253-.529-.153-.556.211h-.463c-.036-.322-.26-.413-.538-.179l-.214.18h-.798l1.022-.9c.297-.263.53-.8.518-1.196l-.014-.428c-.012-.396-.266-.505-.563-.244L8.2 14.241c-.297.262-.53.8-.517 1.196l.013.427c0 .009.004.013.004.021h-.288c-.058 0-.114.008-.172.01.003-.028.014-.046.014-.077v-.427c0-.396-.247-.928-.55-1.183l-.762-.64-.084.695c-.03.307-.1.621-.222.918l.91.763a7.04 7.04 0 0 0-.671.115l-.437-.385c-.02-.017-.035-.019-.054-.033-.02.027-.033.057-.053.084a2.648 2.648 0 0 1-.463.423l-.007.197.003.023c-.157.061-.31.128-.46.2.005-.03.015-.063.018-.093-.1.071-.193.149-.29.224C1.9 17.879 0 20.22 0 22.922v14.927c0 2.716 1.917 5.07 4.172 6.242.084.064.164.131.25.193-.002-.026-.012-.054-.015-.08.149.07.3.137.456.198l-.002.012.007.197c.185.142.35.281.463.423.02.027.034.057.053.084.019-.014.035-.016.054-.033l.427-.376c.219.05.442.087.669.116l-.898.753c.122.297.193.61.222.918l.084.695.762-.64c.303-.254.55-.787.55-1.183v-.427c0-.026-.01-.04-.012-.064.057.001.113.008.17.008h.286l-.002.01-.014.427c-.012.396.22.934.518 1.196l1.274 1.123c.297.261.55.152.563-.244l.014-.427c.012-.396-.22-.934-.518-1.196l-1.009-.889h.799l.2.168c.275.23.495.144.536-.168h.467c.032.353.27.45.554.2l.227-.2h.797l-1.074.901c-.303.255-.551.787-.55 1.183v.428c0 .396.25.511.552.257l1.314-1.103c.303-.254.551-.787.55-1.183v-.427c0-.023-.009-.035-.01-.056h.454l-.002.01-.014.427c-.012.396.22.934.518 1.196l1.274 1.123c.297.262.55.152.563-.244l.014-.427c.012-.396-.22-.934-.518-1.196l-1.009-.889h.799l.2.168c.275.23.495.144.536-.168h.467c.032.354.27.45.554.2l.227-.2h.797l-1.074.901c-.303.255-.551.787-.55 1.183v.428c0 .396.249.511.552.257l1.314-1.103c.303-.255.551-.787.55-1.183v-.427c0-.023-.009-.035-.01-.056h.31c.05 0 .097-.006.146-.007 0 .007-.004.01-.004.017l-.014.427c-.012.396.22.934.518 1.196l.814.717.088-.739c.03-.304.1-.615.219-.91l-.869-.764c.223-.029.443-.066.658-.115l.412.346c.025.02.046.024.07.04.014-.02.024-.04.038-.059.11-.137.267-.272.445-.41v-.212c.155-.06.306-.124.455-.194-.003.027-.013.056-.014.083.09-.065.175-.136.264-.203C24.326 42.928 26 40.57 26 37.848l-.125-10.392a.876.876 0 0 0 .354.067c.073 0 .148-.005.215-.017a.686.686 0 0 0 .51-.37zM25 37.849c0 2.549-1.715 4.729-3.954 5.612a5.982 5.982 0 0 1-2.207.424l-.776.115H8.15l-.738-.115a5.985 5.985 0 0 1-2.234-.433C2.953 42.562 1 40.388 1 37.849V22.922c0-2.542 1.957-4.718 4.186-5.606.513-.205 1.058-.26 1.628-.316.197-.02.396 0 .598 0h11.427c.189 0 .375-.017.56 0 .574.053 1.125.103 1.642.307 2.241.882 3.96 3.064 3.96 5.615v14.927zm-6.057 9.647v.427c0 .396.247.929.55 1.183l.527.442.204-1.698-.728-.61c-.304-.255-.552-.14-.553.256zM41 50.765h-.625c-1.25 0-1.375-.553-1.375-1.236V35.903c-1.14 1.513-2.948 2.509-5 2.509s-3.86-.996-5-2.51V49.53c0 .683-.434 1.236-1.125 1.236h-.625c-.344 0-.625.278-.625.617s.281.618.625.618H41c.344 0 .625-.278.625-.618s-.28-.617-.625-.617zM41 10H27.25c-.344 0-.625.278-.625.618s.281.617.625.617h.625c.69 0 1.125.553 1.125 1.236v19.764c0 2.718 2.375 4.941 5.125 4.941S39 34.953 39 32.236V12.47c0-.683.125-1.236 1.375-1.236H41c.344 0 .625-.278.625-.617S41.345 10 41 10zm-7 19.75a1.25 1.25 0 1 1 0-2.5 1.25 1.25 0 0 1 0 2.5zm0-5a1.25 1.25 0 1 1 0-2.5 1.25 1.25 0 0 1 0 2.5zm0-5a1.25 1.25 0 1 1 0-2.5 1.25 1.25 0 0 1 0 2.5zm33.225 3.674a1.223 1.223 0 0 0-.109-.391.686.686 0 0 0-.51-.37 1.263 1.263 0 0 0-.327-.013c-.054.004-.103.027-.154.04L66 22.55c0-2.425-1.28-4.516-3.318-5.52-.995-.675-1.586-1.618-1.68-2.64l-.437-3.785c-.136-1.04-.307-1.192-1.907-1.533 0 0-2.4-.312-4.55-.312s-4.548.312-4.548.312c-1.601.34-1.771.494-1.907 1.533l-.438 3.785c-.094 1.023-.662 1.968-1.653 2.644C43.528 18.038 42 20.128 42 22.55v15.69c0 2.47 1.584 4.595 3.683 5.575.914.669 1.442 1.575 1.532 2.555l.438 3.785c.136 1.04.306 1.192 1.907 1.533 0 0 2.4.312 4.549.312s4.549-.312 4.549-.312c1.6-.34 1.77-.494 1.907-1.533l.437-3.785c.09-.978.638-1.882 1.556-2.55C64.663 42.84 66 40.713 66 38.24V27.598c.051.012.225.035.28.04a1.432 1.432 0 0 0 .326-.013.686.686 0 0 0 .51-.37c.061-.12.09-.257.109-.392.055-.408.062-1.719.062-1.719s-.007-1.31-.062-1.719zM65 38.241c0 1.841-.853 3.448-2.31 4.36a5.107 5.107 0 0 1-2.72.794H48.28c-1 0-1.928-.299-2.72-.794-1.456-.912-2.56-2.519-2.56-4.36V22.55c0-1.864 1.13-3.486 2.616-4.39a5.1 5.1 0 0 1 2.664-.765h11.69a5.1 5.1 0 0 1 2.664.764c1.487.905 2.366 2.527 2.366 4.39v15.692zm-53.92 12l1.274-1.122c.297-.262.53-.8.518-1.196l-.014-.427c-.012-.396-.266-.506-.563-.244l-1.274 1.123c-.297.262-.53.8-.518 1.196l.014.427c.012.396.266.505.563.244zm1.263-.4l-1.313 1.102c-.265.222-.477.653-.529 1.023.411.014.89.023 1.506.026l.339-.285c.303-.254.551-.787.55-1.183v-.427c0-.396-.25-.512-.553-.257zm-4.084-.034c-.297-.261-.55-.152-.563.244l-.014.428c-.012.395.22.933.518 1.195l.166.146c.612.057 1.086.099 1.666.127-.046-.367-.244-.792-.499-1.017L8.26 49.807zM8.21 47.24c-.303-.254-.552-.139-.552.257v.427c-.001.397.247.929.55 1.183l1.313 1.103c.304.255.552.139.553-.257v-.427c0-.396-.247-.929-.55-1.183L8.21 47.239zm5.643 0c-.304-.254-.552-.139-.553.257v.427c0 .397.247.929.55 1.183l1.314 1.103c.303.255.551.139.552-.257v-.427c.001-.396-.247-.929-.55-1.183l-1.313-1.103zm.047 2.569c-.297-.262-.55-.153-.563.243l-.013.428c-.013.395.22.933.517 1.195l.366.322c.544 0 1.032 0 1.47-.008-.034-.376-.238-.824-.503-1.058l-1.274-1.123zm4.085.032l-1.314 1.103c-.268.225-.482.662-.53 1.035.674-.02 1.227-.063 1.699-.147l.147-.124c.303-.254.551-.787.55-1.183v-.427c0-.396-.249-.512-.552-.257z" fill="#1d1d1f"/></svg>