<svg height="56" viewBox="0 0 72 56" width="72" xmlns="http://www.w3.org/2000/svg"><path d="m0 0h72v56h-72z" fill="none"/><path d="m68 49v-23c0-1.1046-.8954-2-2-2h-34c-1.1046 0-2 .8954-2 2v23h-4v1.2122c0 .7416.6012 1.2878 1.3429 1.2878h2.3754l.2144.5h2.5713l.2144-.5h32.2817l.2144.5h2.5713l.2144-.5h2.6571c.7417 0 1.3429-.5461 1.3429-1.2878v-1.2122h-4zm-1.5 0h-35v-23c0-.2757.2242-.5.5-.5h14.5v.06c0 .5192.4209.94.9399.94h3.1201c.519 0 .9399-.4208.9399-.94v-.06h14.5c.2758 0 .5.2243.5.5v23zm-41.5 0h-19.5v-27c0-.2757.2242-.5.5-.5h17.5v.06c0 .5192.4209.94.9399.94h3.1201c.519 0 .9399-.4208.9399-.94v-.06h17.5c.2758 0 .5.2243.5.5v1.0184h1.5v-1.0184c0-1.1046-.8954-2-2-2h-39.9999c-1.1046 0-2 .8954-2 2v27h-4v1.2122c0 .7416.6797 1.2878 1.5181 1.2878h1.8298l.2144.5h2.5713l.2144-.5h19.0471c-.2502-.3646-.395-.8066-.395-1.2878v-1.2122z" fill="#1d1d1f"/></svg>