<svg height="56" viewBox="0 0 90 56" width="90" xmlns="http://www.w3.org/2000/svg"><path d="m0 0h90v56h-90z" fill="none"/><path d="m25 52h16v-10.5h-16zm8.0148-12.5h-31.0148c-.2761 0-.5-.2239-.5-.5v-34c0-.2762.2239-.5.5-.5h62c.2761 0 .5.2238.5.5v2.0148h1.5v-2.5148c0-.8284-.6716-1.5-1.5-1.5h-63c-.8284 0-1.5.6716-1.5 1.5v35c0 .8284.6716 1.5 1.5 1.5h32.0318c-.3196-.4182-.517-.9342-.517-1.5zm55.4852-31.5h-53c-.8284 0-1.5.6716-1.5 1.5v30c0 .8284.6716 1.5 1.5 1.5h53c.8284 0 1.5-.6716 1.5-1.5v-30c0-.8284-.6716-1.5-1.5-1.5zm0 31c0 .2761-.2239.5-.5.5h-52c-.2761 0-.5-.2239-.5-.5v-29c0-.2762.2239-.5.5-.5h52c.2761 0 .5.2238.5.5zm-24.625 2.75c0 .9665-.7835 1.75-1.75 1.75h-.25c-.9665 0-1.75-.7835-1.75-1.75v-.25h-5.125v10.5h14v-10.5h-5.125z" fill="#1d1d1f"/></svg>