<svg height="56" viewBox="0 0 42 56" width="42" xmlns="http://www.w3.org/2000/svg"><path d="m0 0h42v56h-42z" fill="none"/><path d="m42 49v-40h-2v-4c0-.5523-.4478-1-1-1s-1 .4477-1 1v4h-34v-4c0-.5523-.4477-1-1-1s-1 .4477-1 1v4h-2v40h2v1.4592c0 .2761-.2239.5-.5.5h-1.5v1.0408h6v-1.0408h-1.5c-.2761 0-.5-.2239-.5-.5v-1.4592h34v1.4592c0 .2761-.2239.5-.5.5h-1.5v1.0408h6v-1.0408h-1.5c-.2761 0-.5-.2239-.5-.5v-1.4592zm-20.8566-25.6246c.1108-.2449.2487-.4725.4344-.6773.1739-.1912.3843-.3596.6252-.4897.2393-.1281.4916-.1931.7479-.2084.0118.0364.0157.0689.0157.0995v.1069c0 .2527-.0557.5089-.1591.7654-.105.2543-.2389.4819-.4167.6808-.1743.2045-.3694.3635-.5911.4818-.2183.1207-.4419.1779-.6696.1779-.0936 0-.1414-.0133-.1473-.0533-.002-.027-.002-.0748-.002-.1454 0-.2468.0556-.4896.1626-.7384zm3.5617 6.7043c-.1187.2335-.239.4572-.3635.6522-.1321.201-.2582.3808-.3749.532-.1281.1508-.2296.2581-.2965.3326-.1375.1147-.2734.2143-.4188.2871-.1359.0744-.2812.1031-.434.1031-.0975 0-.2162-.0208-.3522-.0612-.1414-.0419-.2812-.0862-.4266-.134-.1473-.0478-.2946-.0897-.4399-.1375-.1528-.0384-.2809-.0576-.4016-.0576-.1301 0-.2754.0192-.4247.067-.1567.0424-.3099.0901-.4611.1399-.1567.0513-.302.0936-.4286.1375-.1281.0384-.2448.0591-.3231.0591-.1262 0-.2371-.0208-.3463-.0591-.1129-.0439-.2292-.1148-.3518-.2104-.1222-.0975-.2429-.2276-.3768-.3921-.1395-.1626-.2888-.3616-.4533-.6064-.1551-.2256-.2871-.4744-.4207-.7419-.1226-.2738-.2394-.5511-.3271-.8458-.0862-.2867-.1591-.5754-.2048-.872-.0498-.2946-.0823-.5778-.0823-.8571 0-.4282.0615-.8262.1876-1.1917.1261-.3611.304-.6828.5261-.9468.2236-.2715.4798-.4744.7745-.6232.2926-.1438.6158-.2182.962-.2182.2563 0 .5587.0744.907.2182.3423.1489.5793.2236.7172.2236.0478 0 .132-.0211.2504-.067.1245-.0439.3099-.1069.5413-.1951.2296-.0784.4055-.134.5414-.1646.1379-.0306.2774-.0478.4208-.0478.3866 0 .7443.0917 1.0961.2773.3444.1818.6217.4227.8226.7286-.3713.2241-.6428.4916-.8132.8055-.1626.3079-.2465.6788-.2465 1.098 0 .4399.1129.8395.3478 1.203.2296.3655.5547.6428.972.8262-.0823.2507-.1838.5014-.2985.7384z" fill="#1d1d1f"/></svg>