<svg height="56" viewBox="0 0 106 56" width="106" xmlns="http://www.w3.org/2000/svg"><path d="m0 0h106v56h-106z" fill="none"/><path d="m23.9924 41h54.0151c.5481 0 .9924-.4444.9924-.9926v-31.0149c0-.5482-.4443-.9925-.9924-.9925h-54.0151c-.5481 0-.9924.4443-.9924.9925v31.015c0 .5482.4443.9926.9924.9926zm.5076-31.5h53v30h-53zm-22.8779 20.5v-.5c0-.9648.75-1.75 1.6729-1.75h18.7198v-1.75h-19.5815c-1.344 0-2.4333 1.0894-2.4333 2.4333v3.314c.8962-.0148 1.6221-.7916 1.6221-1.7473zm51.2529 11.75c0 .9665-.7834 1.75-1.75 1.75h-.25c-.9666 0-1.75-.7835-1.75-1.75v-.25h-5.125v10.5h14v-10.5h-5.125zm49.125 8.25v-22.0193c0-1.0939-.8867-1.9807-1.9807-1.9807h-20.0341v1.4855h1.7648v.0145c0 .5522.4478 1 1 1h2.5c.5522 0 1-.4478 1-1v-.0145h13.7693c.2731 0 .4952.2222.4952.4952v22.0193h-33.0291v-8.0148h-1.4855v8.0148h-4v.5c0 .5522.4478 1 1 1h2l.2859.5h3.4282l.2859-.5h30l.2859.5h3.4282l.2859-.5h2c.5522 0 1-.4478 1-1v-.5h-4zm-79.9852-9.9925v-11.7575h-18.7199c-.6465 0-1.1729.5605-1.1729 1.25v.5c0 1.2316-.9495 2.2327-2.1221 2.2473v17.3193c0 1.3439 1.0894 2.4333 2.4333 2.4333h31.1333c1.344 0 2.4333-1.0895 2.4333-2.4333v-7.5815h-12.0074c-1.0906 0-1.9778-.8872-1.9778-1.9777zm-3.9491-2.7316c.0507-.1121.1138-.2162.1987-.3099.0796-.0875.1758-.1646.2861-.2241.1095-.0586.225-.0884.3423-.0953.0054.0167.0071.0316.0071.0455v.0489c0 .1157-.0254.2329-.0728.3503-.0481.1163-.1094.2205-.1907.3116-.0798.0936-.1692.1663-.2705.2205-.0999.0552-.2024.0814-.3064.0814-.043 0-.0647-.0061-.0674-.0244-.001-.0123-.001-.0342-.001-.0665 0-.113.0254-.2241.0745-.338zm1.6299 3.068c-.0543.1069-.1094.2092-.1664.2985-.0604.092-.1182.1743-.1715.2435-.0586.069-.1051.1182-.1357.1522-.063.0525-.1252.098-.1917.1314-.0623.0341-.1287.0471-.1987.0471-.0446 0-.0989-.0095-.1611-.028-.0647-.0192-.1287-.0394-.1952-.0613-.0674-.0219-.1349-.0411-.2013-.0629-.0699-.0176-.1285-.0264-.1838-.0264-.0594 0-.126.0088-.1943.0306-.0717.0193-.1417.0413-.2109.064-.0718.0234-.1382.0428-.196.0629-.0587.0175-.1121.027-.1479.027-.0577 0-.1084-.0095-.1584-.027-.0518-.0201-.105-.0526-.161-.0963-.056-.0446-.1112-.1041-.1725-.1794-.0638-.0744-.1321-.1655-.2074-.2775-.0709-.1032-.1315-.217-.1925-.3395-.0562-.1253-.1096-.2522-.1497-.387-.0396-.1312-.0729-.2634-.0938-.399-.0229-.1348-.0377-.2644-.0377-.3923 0-.1959.0282-.3781.0858-.5453.0577-.1653.1392-.3124.2407-.4333.1024-.1242.2197-.2171.3545-.2852.1339-.0658.2817-.0999.4403-.0999.1173 0 .2556.0341.415.0999.1566.0681.265.1024.3282.1024.0219 0 .0603-.0096.1145-.0306.057-.0201.1418-.049.2478-.0893.105-.0358.1855-.0613.2478-.0753.063-.014.1268-.0219.1924-.0219.177 0 .3407.042.5017.127.1575.0832.2844.1934.3765.3334-.1699.1025-.2942.225-.3722.3686-.0743.1409-.1128.3107-.1128.5025 0 .2013.0516.3842.1593.5505.105.1672.2538.2942.4447.3781-.0377.1147-.0841.2295-.1366.338z" fill="#1d1d1f"/></svg>